<svg xmlns="http://www.w3.org/2000/svg" display="none">
  <symbol id="eagle" viewBox="0 0 60 60">
    <g id="014---Eagle"><path id="Shape" d="m12.53 52.21c.9925586-3.082321 2.9796915-5.7482445 5.65-7.58.5110735-.3549804 1.1889265-.3549804 1.7 0 1.16.84 3.89 3.57 4.93 11 1.86-1.18 5.54-3.92 6.11-7.43.0890183-.5729698.5002994-1.0433173 1.0562739-1.2079713.5559745-.1646539 1.1570548.0058788 1.5437261.4379713 1.2461306 1.424065 2.3669608 2.9530781 3.35 4.57.6210094-1.6503373 1.0015677-3.3813724 1.13-5.14.0139943-.441217.2229117-.8535158.5704247-1.1257344.3475131-.2722185.7978435-.3763305 1.2295753-.2842656 1.4282337.3163965 2.8741652.5468105 4.33.69-2.47-2.59-8.43-10.2-8.15-22.76-3.09.2-4.58.62-5 .62-1.38 0-4-.63-4-3 0-.46.3-4.61 10.78-7.69-.1573324-1.3161108.2619635-2.6359815 1.15-3.62.3976303-.45963952.9826908-.71353369 1.59-.69.53 0 1.24.05 2 .13-1.03-3.23-4.5-9.13-15.5-9.13-11.41 0-19.23 7-22.44 10.47l.35-.07c.67196259-.1524143 1.36133897.1725648 1.67137494.7879034s.16098303 1.3627571-.36137494 1.8120966c-.83875186.7615961-1.60227064 1.6021365-2.28 2.51l.78-.19c.55872063-.1470823 1.15210551.042088 1.52260744.4854054.37050194.4433173.45132619 1.0608596.20739256 1.5845946-.28.62-6.73 15-5.65 35.94 2.10273487-2.9667494 4.77457333-5.48562 7.86-7.41.47159676-.2705922 1.05314466-.2628205 1.517342.0202774.4641974.283098.737336.7965701.712658 1.3397226-.0117499 1.7791894.5648112 3.5123886 1.64 4.93zm7.58-41.66c.06-.13 1.62-3.18 4.49-3.81 1.806342-.31463575 3.6559474.23284744 5 1.48 2.18 1.74 3.59 2 4.39 1.83.4462093-.05409083.8580075-.26708989 1.16-.6.3051825-.456275.9211173-.58124727 1.38-.28 1.49 1-1 3.76-4.63 2.63-.3225564 1.579483-1.561743 2.8109706-3.1432055 3.1236771-1.5814626.3127066-3.1960809-.3544911-4.0954909-1.6923516-.8994101-1.3378605-.9078089-3.0848792-.0213036-4.4313255-1.1767095.56388025-2.1459037 1.4840899-2.77 2.63-.2700473.4487927-.8406385.6131719-1.3080622.3768341s-.6732882-.7933069-.4719378-1.2768341z"/><path id="Shape" d="m28 13c.5464011.0005535 1.0692387-.2224693 1.4470094-.6172398.3777708-.3947704.5775789-.9269123.5529906-1.4727602-1.32-.79-1.65-1.27-2.64-1.8-.9204191.31848553-1.4775851 1.2536897-1.31947 2.2147329.158115.9610431.9855306 1.6684498 1.95947 1.6752671z"/><path id="Shape" d="m47 23c.6955947-.1127602 1.329297-.4667838 1.79-1-1.71-1.34-4.32-2-7.79-2-8.2 0-11 .93-11.86 1.37.39.51 1.49.61 1.79.63 11.07-2 14.49 1 16.07 1z"/><path id="Shape" d="m50.88 21.24v.05c.6805526.6852684 1.2087399 1.5065145 1.55 2.41 1.85-4.93 0-7.81-2.18-10-1.78-1.82-6.25-2.58-9.81-2.7-.4969727.5414153-.7405358 1.2684693-.67 2 .1275379.9801987-.4801153 1.906551-1.43 2.18-2.770465.6768205-5.3802564 1.8933639-7.68 3.58 3.4107172-.6133455 6.8762584-.8680661 10.34-.76 4.49 0 7.8 1.09 9.85 3.22zm-5.17-6.53c-.7271772.7301648-1.6847638 1.1859902-2.71 1.29-.5522847 0-1-.4477153-1-1s.4477153-1 1-1c.4948899-.1005032.9479564-.3479472 1.3-.71.3921222-.3893607 1.0256392-.3871222 1.415.005.3893607.3921222.3871222 1.0256392-.005 1.415z"/></g>
  </symbol>
  <symbol id="wings" viewBox="0 0 512.00079 512">
    <path d="m391.316406 66.558594c11.085938-14.402344 24.742188-26.632813 40.273438-36.078125-2.011719 6.402343-3.90625 13.101562-5.660156 20.296875-1.828126 7.589844-3.300782 14.878906-4.433594 22-3.996094 2.496094-15.023438 7.222656-35.65625 2.203125 1.664062-2.910157 3.492187-5.71875 5.476562-8.421875zm-9.957031 86.191406c2.804687.109375 5.59375.210938 8.183594.210938 10.890625.15625 21.765625-1.039063 32.363281-3.558594.425781 17.789062-3.769531 35.382812-12.175781 51.0625-10.699219.347656-21.292969-2.148438-30.710938-7.230469 2.25-3.285156 3.957031-6.914063 5.054688-10.742187 2.191406-9.953126 1.257812-20.34375-2.679688-29.742188zm-2.882813-60.800781c7.820313 2.214843 15.894532 3.382812 24.019532 3.472656 5.640625.050781 11.261718-.675781 16.703125-2.164063-.511719 12.484376.007812 24.988282 1.566406 37.382813v.121094c-14.605469 3.828125-29.785156 4.976562-44.800781 3.382812-2.6875-14.058593-1.808594-28.5625 2.550781-42.195312zm-40.191406 125.386719c9.546875-2.351563 18.699219-6.082032 27.164063-11.082032 9.175781 6.476563 19.847656 10.515625 31.011719 11.738282-11.492188 11.464843-25.929688 19.523437-41.71875 23.296874-4.066407.996094-8.152344 1.917969-12.242188 2.832032-1.398438.3125-2.742188.667968-4.1875.988281zm-112.390625-37.15625c27.179688-27.183594 10.054688-49.097657 3.800781-55.472657-.847656-.816406-1.585937-1.738281-2.203124-2.742187-.042969-.082032-.136719-.117188-.191407-.199219-.398437-.546875-.859375-1.042969-1.371093-1.484375-.34375-.382812-.714844-.742188-1.113282-1.066406-.457031-.257813-.933594-.476563-1.429687-.652344-.582031-.304688-1.195313-.546875-1.828125-.71875-.097656 0-.171875-.09375-.273438-.101562-6.71875-1.050782-13.527344-1.378907-20.316406-.988282 5.167969-4.167968 11.519531-6.59375 18.148438-6.929687.5-.011719 1-.0625 1.492187-.15625 3.289063-.429688 6.054687-2.6875 7.140625-5.824219.710938-1.152344 1.621094-2.171875 2.6875-3.007812 5.296875-3.433594 11.839844-4.363282 17.882812-2.542969 1.726563.484375 3.410157 1.113281 5.027344 1.886719 1.203125.519531 2.378906 1.105468 3.511719 1.761718 19.601563 11.238282 26.570313 35.839844 26.570313 53.488282 0 13.511718 13.511718 32.28125 24.90625 45.710937h-103.40625zm-33.894531 39.25h128v36.570312h-128zm128 54.855468v76.105469c.125 4.738281-1.824219 9.292969-5.339844 12.472656-3.515625 3.179688-8.242187 4.667969-12.945312 4.066407v-92.644532zm-36.570312 0v94.957032c-6.34375 1.570312-12.484376 3.878906-18.285157 6.886718v-101.84375zm-36.570313 0v101.84375c-5.804687-3.007812-11.941406-5.316406-18.289063-6.886718v-94.957032zm-54.859375 0h18.285156v92.644532c-4.6875.601562-9.402344-.871094-12.917968-4.035157-3.511719-3.160156-5.472657-7.695312-5.367188-12.421875zm-45.449219-68.03125c8.464844 5 17.617188 8.730469 27.164063 11.082032v27.773437c-1.398438-.320313-2.742188-.675781-4.1875-.988281-4.085938-.914063-8.171875-1.828125-12.242188-2.832032-15.796875-3.765624-30.246094-11.828124-41.746094-23.296874 11.164063-1.222657 21.835938-5.261719 31.011719-11.738282zm-18.660156-23.773437c1.101563 3.828125 2.808594 7.457031 5.054687 10.746093-9.414062 5.089844-20.011718 7.585938-30.710937 7.230469-8.40625-15.679687-12.605469-33.273437-12.175781-51.0625 10.597656 2.515625 21.472656 3.710938 32.363281 3.554688 2.589844 0 5.378906-.097657 8.183594-.210938-3.949219 9.402344-4.898438 19.792969-2.714844 29.753907zm8.15625-48.390625c-15.015625 1.59375-30.195313.445312-44.800781-3.382813v-.121093c1.550781-12.378907 2.070312-24.863282 1.554687-37.328126 5.425781 1.5 11.035157 2.242188 16.667969 2.210938 8.125-.089844 16.199219-1.257812 24.019531-3.472656 4.34375 13.601562 5.226563 28.074218 2.558594 42.101562zm-15.359375-67.53125c1.988281 2.699218 3.816406 5.511718 5.484375 8.421875-20.726563 5.046875-31.753906.246093-35.65625-2.167969-1.132813-7.128906-2.578125-14.425781-4.433594-22.035156-1.757812-7.195313-3.660156-13.90625-5.660156-20.296875 15.527344 9.445312 29.179687 21.675781 40.265625 36.078125zm-18.214844 235.082031c-7.628906-8.824219-11.539062-20.261719-10.914062-31.910156.109375-.246094.28125-.445313.375-.703125 1.644531-4.769532-.890625-9.972656-5.660156-11.621094l-.777344-.238281c-.351563-.125-.707032-.226563-1.070313-.308594-10.019531-1.554687-17.9375-9.320313-19.683593-19.308594h.273437c4.617187-.003906 8.507813-3.445312 9.074219-8.023437.5625-4.582032-2.375-8.867188-6.851563-9.988282-2.671875-.652343-5.21875-1.730468-7.542969-3.191406-8.554687-5.847656-13.683593-15.53125-13.714843-25.894531.238281 0 .492187.09375.730469.09375 4.625.023437 8.539062-3.414063 9.117187-8 .578125-4.589844-2.363281-8.886719-6.847656-10.011719-17.097657-4.363281-21.074219-20.226562-21.550781-32.082031 2.542968 1.164063 5.179687 2.109375 7.878906 2.824219.75.1875 1.515625.28125 2.289062.285156 4.609375.003906 8.503906-3.425781 9.078125-8.003906.578125-4.574219-2.34375-8.859375-6.8125-10-16.886719-4.34375-20.984375-19.8125-21.578125-31.605469 2.21875.9375 4.507813 1.710937 6.839844 2.3125.753906.191406 1.527344.289063 2.304688.292969 4.613281.007812 8.507812-3.421875 9.089843-7.996094.578125-4.578125-2.34375-8.867188-6.8125-10.007812-17.574219-4.496094-21.304687-21.09375-21.613281-33.023438 7.941406 4.976562 16.308594 9.234375 25.003906 12.726562 4.671875 1.917969 10.011719-.3125 11.933594-4.984374 1.917969-4.667969-.3125-10.011719-4.984375-11.929688-36.917969-15.175781-39.953125-29.136719-40.046875-29.15625-.0429688-3.976562 1.84375-7.726562 5.066406-10.058594 2.84375-2.0898435 6.535156-2.65625 9.875-1.507812 14.027344 4.660156 27.769532 10.15625 41.140625 16.457031 5.050781 12.371094 9.128907 25.121094 12.199219 38.125 3.140625 12.539063 5.234375 25.316406 6.253906 38.199219.542969 11.835937.042969 23.699218-1.492187 35.449218l-.613281 6.1875c-4.480469 32.941407 4.96875 66.257813 26.078124 91.941407 14.433594 16.015625 33.421876 27.234375 54.417969 32.144531 4.195313 1.035156 8.410157 1.976562 12.617188 2.925781 2.742187.613281 5.484375 1.28125 8.179687 1.921875v23.394532c-13.40625 7.9375-26.382812 16.574218-38.875 25.886718-11.898437.535156-23.53125-3.636718-32.375-11.613281zm7.242188 118.929687c-12.527344 0-20.964844-2.6875-23.769532-7.578124-4.089843-7.179688 1.828126-20.289063 4.160157-24.285157.253906-.417969.472656-.855469.65625-1.304687 12.554687-31.398438 59.429687-63.910156 82.933593-78.628906v41.734374c.167969 9.097657 3.765626 17.796876 10.078126 24.347657 1.496093 8.386719 4.179687 16.511719 7.972656 24.136719-3.949219 1.582031-7.984375 3.402343-12.097656 5.488281-5.425782 2.808593-10.664063 5.972656-15.679688 9.460937-17.789062 4.175782-35.980469 6.398438-54.253906 6.628906zm46.484375 27.019532c1.441406-4.398438 10.96875-16.019532 31.824219-26.835938 4.460937-2.257812 9.058593-4.234375 13.769531-5.914062 3.148437 3.945312 6.628906 7.617187 10.40625 10.96875-1.484375 1.464844-2.964844 2.917968-4.390625 4.574218-3.660156 2.394532-7.441406 4.601563-11.328125 6.609376-20.84375 10.769531-35.839844 11.921874-40.28125 10.597656zm73.507812 11.617187c-.183593.371094-.335937.75-.457031 1.144531-1.472656 3.015626-3.117188 6.015626-4.921875 8.960938-12.242187 20.113281-24.457031 28.882812-28.960937 30.050781-1.015626-4.570312 1.121093-19.4375 13.238281-39.515625 3.265625-5.472656 6.976562-10.671875 11.089843-15.542968.171876-.152344.308594-.308594.476563-.464844l.207031-.183594.066406-.101562c.082032-.082032.183594-.164063.265626-.253907 2.042968-2.390625 4.242187-4.640625 6.582031-6.738281 2.859375 1.664062 5.90625 3.234375 9.140625 4.707031-1.578125 6.210938-3.832032 12.222657-6.726563 17.9375zm26.292969 52.289063c-3.246094-3.363282-9.140625-17.195313-9.140625-40.640625 0-1.761719.054687-3.535157.109375-5.410157 2.753906-5.710937 4.988281-11.660156 6.671875-17.773437.75.203125 1.519531.308594 2.296875.320313h.128906c.769532-.011719 1.539063-.117188 2.285156-.320313 1.664063 6.136719 3.894532 12.105469 6.664063 17.828125.0625 1.746094.128906 3.519531.128906 5.355469 0 23.445312-5.898437 37.277343-9.144531 40.640625zm0-82.285156c-23.085938-5.804688-41.960938-22.375-50.707031-44.515626 1.65625.261719 3.320312.425782 4.992187.492188 14.4375.269531 28.355469 5.425781 39.480469 14.628906.433594.351563.902344.65625 1.398437.914063.441407.351562.917969.65625 1.417969.914062 2.183594.925781 4.652344.925781 6.839844 0 .5-.257812.972656-.5625 1.414063-.914062.496093-.257813.964843-.5625 1.398437-.914063 11.085937-9.269531 25.03125-14.425781 39.480469-14.601562 1.671875-.066406 3.339844-.230469 4.992187-.492188-8.746093 22.140625-27.621093 38.710938-50.707031 44.515625zm60.636719 70.125c-4.507813-1.167969-16.730469-9.929688-28.984375-30.089844-1.84375-3.003906-3.535156-6.101563-5.0625-9.277344-.121094-.3125-.25-.613281-.394532-.914062-2.878906-5.660157-5.109374-11.625-6.648437-17.785157 3.238281-1.480469 6.300781-3.042969 9.144531-4.707031 2.339844 2.097656 4.539063 4.347656 6.582032 6.738281.136718.15625.292968.292969.4375.4375l.210937.21875.21875.222657c4.179687 4.914062 7.945313 10.167968 11.257813 15.707031 12.113281 20.039062 14.253906 34.914062 13.238281 39.476562zm-1.097657-62.398438c-3.914062-2.023438-7.714843-4.25-11.390624-6.675781-1.445313-1.644531-2.898438-3.054688-4.351563-4.496094 3.777344-3.351563 7.261719-7.023437 10.410156-10.972656 4.691407 1.675781 9.273438 3.644531 13.714844 5.898437 20.894531 10.832032 30.429687 22.453125 31.875 26.851563-4.4375 1.371093-19.429687.21875-40.257813-10.578125zm105.683594-49.5625c.183594.449219.402344.886719.65625 1.304688 1.9375 3.238281 8.355469 16.871093 4.167969 24.257812-2.742187 4.910156-11.207031 7.605469-23.769531 7.605469-18.273438-.226563-36.46875-2.441407-54.261719-6.609375-5.027344-3.5-10.277344-6.667969-15.71875-9.480469-4.085937-2.09375-8.097656-3.90625-12.050781-5.488281 3.792968-7.613282 6.480468-15.734375 7.984375-24.109375 6.3125-6.5625 9.90625-15.277344 10.054687-24.382813v-41.738281c23.480469 14.757813 70.402344 47.269531 82.9375 78.667969zm50.730469-346.03125c-4.667969 1.917969-6.898437 7.261719-4.980469 11.929688 1.917969 4.671874 7.261719 6.902343 11.929688 4.984374 8.71875-3.511718 17.105468-7.796874 25.0625-12.800781-.265625 11.886719-3.949219 28.507813-21.667969 33.0625-4.550781 1.074219-7.554687 5.40625-6.96875 10.042969.585937 4.632812 4.570313 8.082031 9.242187 7.996094.769532-.003906 1.535157-.101563 2.277344-.292969 2.34375-.609375 4.640625-1.394531 6.867188-2.339844-.519532 11.773438-4.570313 27.261719-21.605469 31.632813-4.46875 1.140625-7.386719 5.425781-6.8125 10 .578125 4.578125 4.46875 8.007812 9.082031 8.003906.769532-.003906 1.539063-.097656 2.285156-.285156 2.726563-.71875 5.382813-1.675782 7.945313-2.851563-.4375 11.839844-4.378906 27.710938-21.640625 32.144531-4.488281 1.125-7.429688 5.421876-6.851562 10.011719.578124 4.589844 4.492187 8.023438 9.117187 8 .238281 0 .484375-.074219.722656-.089843-.082031 10.46875-5.316406 20.226562-13.996093 26.082031-2.234376 1.375-4.671876 2.390625-7.222657 3-4.480469 1.121093-7.417969 5.40625-6.851562 9.988281.5625 4.582031 4.457031 8.023438 9.070312 8.023438h.277344c-1.746094 9.988281-9.664063 17.757812-19.6875 19.308593-.375.089844-.75.203125-1.113281.332031-.273438.070313-.539063.144532-.730469.21875-4.773437 1.644532-7.304687 6.847657-5.660156 11.621094.089843.253906.265625.457032.375.703125.625 11.648438-3.289063 23.082031-10.917969 31.90625-8.855469 7.949219-20.480469 12.089844-32.367188 11.53125-12.480468-9.320312-25.449218-17.972656-38.847656-25.921875v-23.394531c2.746094-.640625 5.488282-1.308594 8.230469-1.921875 4.207031-.914062 8.421875-1.890625 12.617187-2.925781 20.992188-4.910157 39.984376-16.128907 54.417969-32.144531 21.109375-25.683594 30.558594-59 26.074219-91.941407l-.613281-6.1875c-1.535157-11.75-2.03125-23.613281-1.488281-35.449219 1.019531-12.882812 3.109374-25.660156 6.253906-38.199218 3.070312-13.003906 7.148437-25.753906 12.195312-38.125 13.375-6.285156 27.113282-11.765625 41.144532-16.410156 3.339843-1.148438 7.027343-.585938 9.875 1.507812 3.058593 2.203125 4.910156 5.710938 5.007812 9.480469 0 .136719-2.476562 14.316406-40.046875 29.769531zm0 0"/>
  </symbol>
  <symbol id="rxjs" viewBox="0 0 283.5 283.5">
      <style type="text/css">.st0{fill:#e32286}.st1{fill:url(#SVGID_1_)}.st2{fill:url(#SVGID_2_)}.st3{fill:url(#SVGID_3_)}</style>
    <g><path d="M29.6,175.3c-5.2-16.2-6.7-33.3-3.7-50.9c1.3-7.3,3.3-14.3,5.5-21.4c0,0,13.8-45.3,60.5-66 c0,0,16.1-8.5,40.3-9.1c0,0-3.3-3.2-5.4-4.6c-11.4-7.6-28.4-10.1-38.7,0.6c-3.1,3.2-5.7,6.7-8.6,9.9c-3.3,3.6-7.3,6.6-11.9,8.3 c-4,1.5-8,1.2-12.1,1.9c-4.2,0.7-8.5,2.2-11.9,4.9c-3.7,3-5.2,7-5.6,11.6c-0.4,3.6-0.3,7.3-0.5,10.9c-0.5,10.6-3.9,13.6-11.5,19.5 c-3.2,2.4-5.9,5.6-7.9,9c-6,10.6,3.6,21.6,4.1,32.3c0.1,2.2-0.1,4.4-0.9,6.5c-0.8,2.3-2.4,3.8-3.7,5.7c-1.8,2.5-3,5.5-2.5,8.6 c0.5,3.1,2.1,6,3.6,8.7c2.9,4.8,6.5,9.1,10.3,13.2C29.2,174.9,29.4,175.1,29.6,175.3" class="st0"/><linearGradient id="SVGID_1_" x1="53.496" x2="177.932" y1="247.701" y2="115.323" gradientUnits="userSpaceOnUse"><stop offset="0" stop-color="#E01D84"/><stop offset=".401" stop-color="#DF1D85"/><stop offset=".77" stop-color="#932C87"/><stop offset="1" stop-color="#5D2F88"/></linearGradient><path d="M220.4,213.7c23-10,32.8-27.3,32.8-27.3c21.5-29.3,14.2-60.2,14.2-60.2c-13.7,29.8-26.2,38-26.2,38 c33.7-51.3,0.2-82.3,0.2-82.3c13.7,29.2-4.5,64.8-4.5,64.8c-15.3,32.2-37,43.7-37,43.7c24.2,4.5,42-11.8,42-11.8 c-34.7,37.5-72.3,35.7-72.3,35.7c15.8,17.7,39.5,16.2,39.5,16.2c-31,7.3-60.1-3-84-22.9c-4.5-3.7-8.8-7.7-12.8-12 c0,0-3.6-3.8-4.3-4.8l-0.1-0.1c-0.5,18.5,18.8,35.7,18.8,35.7c-24.2-10-35.3-31.7-35.3-31.7s-16.3-27.8-4.5-59.5 c11.8-31.7,47.5-38.5,47.5-38.5c29.5,14.3,54.5,18.8,54.5,18.8c52.7,8.8,49.7-17,49.7-17c0.5-22.2-33-45.8-33-45.8 C145.9,8.4,91.9,37,91.9,37c-46.7,20.7-60.5,66-60.5,66c-2.2,7.1-4.2,14.1-5.5,21.4c-5.1,29.7,2.6,57.8,19.3,82.8 c26,38.8,68.2,52.2,68.2,52.2c62.5,21.2,105.2-10,105.2-10c39.3-27,47.2-58.2,47.2-58.2C234.1,216,220.4,213.7,220.4,213.7z M171.6,67.8c3,0,5.4,2.4,5.4,5.4s-2.4,5.4-5.4,5.4s-5.4-2.4-5.4-5.4S168.6,67.8,171.6,67.8z" class="st1"/><radialGradient id="SVGID_2_" cx="190.456" cy="80.2" r="121.582" gradientTransform="matrix(1 2.387956e-03 -1.996728e-03 0.8362 0.1607 12.6849)" gradientUnits="userSpaceOnUse"><stop offset="0" stop-color="#E01D84"/><stop offset=".139" stop-color="#DE1E85"/><stop offset=".285" stop-color="#D62085"/><stop offset=".434" stop-color="#C92386"/><stop offset=".586" stop-color="#B72786"/><stop offset=".739" stop-color="#9D2B87"/><stop offset=".891" stop-color="#7C2E88"/><stop offset="1" stop-color="#5D2F88"/></radialGradient><path d="M238.5,98.4c0.5-22.2-33-45.8-33-45.8C145.8,8.4,91.8,37,91.8,37c-46.7,20.7-60.5,66-60.5,66 c-2.7,7.7-5.1,19.5-5.1,19.5c-2.9,14.8-1.6,28.5-1.6,28.5c1.2,13.1,4.1,21.9,4.1,21.9c3,9.4,4.4,12.3,4.4,12.3 c-0.1-0.3-0.6-2.5-0.6-2.5s-4.2-20.2-0.3-39.6c0,0,3.4-20.2,17.2-35.8c0,0,22.4-31.9,64.1-19.4c0,0,9,3.2,12.1,4.8 c3.1,1.5,8.5,3.8,8.5,3.8c29.5,14.3,54.5,18.8,54.5,18.8C241.5,124.2,238.5,98.4,238.5,98.4z M171.6,78.7c-3,0-5.4-2.4-5.4-5.4 s2.4-5.4,5.4-5.4s5.4,2.4,5.4,5.4S174.6,78.7,171.6,78.7z" class="st2"/><linearGradient id="SVGID_3_" x1="83.212" x2="137.371" y1="62.336" y2="62.336" gradientUnits="userSpaceOnUse"><stop offset="0" stop-color="#E01D84"/><stop offset=".238" stop-color="#DA1E85"/><stop offset=".658" stop-color="#C72085"/><stop offset=".999" stop-color="#B52284"/></linearGradient><path d="M137.4,58.2l-34.1-10.6c-0.2,0-1.2-0.5-3,0c0,0-20.1,5.1-16.6,16.1c0,0,2.1,6.9,7.8,13.6l37.5-1.8L137.4,58.2z" class="st3"/></g>
  </symbol>
</svg>
