<svg xmlns="http://www.w3.org/2000/svg" display="none">
  <symbol id="wings" viewBox="0 0 512.00079 512">
    <path d="m391.316406 66.558594c11.085938-14.402344 24.742188-26.632813 40.273438-36.078125-2.011719 6.402343-3.90625 13.101562-5.660156 20.296875-1.828126 7.589844-3.300782 14.878906-4.433594 22-3.996094 2.496094-15.023438 7.222656-35.65625 2.203125 1.664062-2.910157 3.492187-5.71875 5.476562-8.421875zm-9.957031 86.191406c2.804687.109375 5.59375.210938 8.183594.210938 10.890625.15625 21.765625-1.039063 32.363281-3.558594.425781 17.789062-3.769531 35.382812-12.175781 51.0625-10.699219.347656-21.292969-2.148438-30.710938-7.230469 2.25-3.285156 3.957031-6.914063 5.054688-10.742187 2.191406-9.953126 1.257812-20.34375-2.679688-29.742188zm-2.882813-60.800781c7.820313 2.214843 15.894532 3.382812 24.019532 3.472656 5.640625.050781 11.261718-.675781 16.703125-2.164063-.511719 12.484376.007812 24.988282 1.566406 37.382813v.121094c-14.605469 3.828125-29.785156 4.976562-44.800781 3.382812-2.6875-14.058593-1.808594-28.5625 2.550781-42.195312zm-40.191406 125.386719c9.546875-2.351563 18.699219-6.082032 27.164063-11.082032 9.175781 6.476563 19.847656 10.515625 31.011719 11.738282-11.492188 11.464843-25.929688 19.523437-41.71875 23.296874-4.066407.996094-8.152344 1.917969-12.242188 2.832032-1.398438.3125-2.742188.667968-4.1875.988281zm-112.390625-37.15625c27.179688-27.183594 10.054688-49.097657 3.800781-55.472657-.847656-.816406-1.585937-1.738281-2.203124-2.742187-.042969-.082032-.136719-.117188-.191407-.199219-.398437-.546875-.859375-1.042969-1.371093-1.484375-.34375-.382812-.714844-.742188-1.113282-1.066406-.457031-.257813-.933594-.476563-1.429687-.652344-.582031-.304688-1.195313-.546875-1.828125-.71875-.097656 0-.171875-.09375-.273438-.101562-6.71875-1.050782-13.527344-1.378907-20.316406-.988282 5.167969-4.167968 11.519531-6.59375 18.148438-6.929687.5-.011719 1-.0625 1.492187-.15625 3.289063-.429688 6.054687-2.6875 7.140625-5.824219.710938-1.152344 1.621094-2.171875 2.6875-3.007812 5.296875-3.433594 11.839844-4.363282 17.882812-2.542969 1.726563.484375 3.410157 1.113281 5.027344 1.886719 1.203125.519531 2.378906 1.105468 3.511719 1.761718 19.601563 11.238282 26.570313 35.839844 26.570313 53.488282 0 13.511718 13.511718 32.28125 24.90625 45.710937h-103.40625zm-33.894531 39.25h128v36.570312h-128zm128 54.855468v76.105469c.125 4.738281-1.824219 9.292969-5.339844 12.472656-3.515625 3.179688-8.242187 4.667969-12.945312 4.066407v-92.644532zm-36.570312 0v94.957032c-6.34375 1.570312-12.484376 3.878906-18.285157 6.886718v-101.84375zm-36.570313 0v101.84375c-5.804687-3.007812-11.941406-5.316406-18.289063-6.886718v-94.957032zm-54.859375 0h18.285156v92.644532c-4.6875.601562-9.402344-.871094-12.917968-4.035157-3.511719-3.160156-5.472657-7.695312-5.367188-12.421875zm-45.449219-68.03125c8.464844 5 17.617188 8.730469 27.164063 11.082032v27.773437c-1.398438-.320313-2.742188-.675781-4.1875-.988281-4.085938-.914063-8.171875-1.828125-12.242188-2.832032-15.796875-3.765624-30.246094-11.828124-41.746094-23.296874 11.164063-1.222657 21.835938-5.261719 31.011719-11.738282zm-18.660156-23.773437c1.101563 3.828125 2.808594 7.457031 5.054687 10.746093-9.414062 5.089844-20.011718 7.585938-30.710937 7.230469-8.40625-15.679687-12.605469-33.273437-12.175781-51.0625 10.597656 2.515625 21.472656 3.710938 32.363281 3.554688 2.589844 0 5.378906-.097657 8.183594-.210938-3.949219 9.402344-4.898438 19.792969-2.714844 29.753907zm8.15625-48.390625c-15.015625 1.59375-30.195313.445312-44.800781-3.382813v-.121093c1.550781-12.378907 2.070312-24.863282 1.554687-37.328126 5.425781 1.5 11.035157 2.242188 16.667969 2.210938 8.125-.089844 16.199219-1.257812 24.019531-3.472656 4.34375 13.601562 5.226563 28.074218 2.558594 42.101562zm-15.359375-67.53125c1.988281 2.699218 3.816406 5.511718 5.484375 8.421875-20.726563 5.046875-31.753906.246093-35.65625-2.167969-1.132813-7.128906-2.578125-14.425781-4.433594-22.035156-1.757812-7.195313-3.660156-13.90625-5.660156-20.296875 15.527344 9.445312 29.179687 21.675781 40.265625 36.078125zm-18.214844 235.082031c-7.628906-8.824219-11.539062-20.261719-10.914062-31.910156.109375-.246094.28125-.445313.375-.703125 1.644531-4.769532-.890625-9.972656-5.660156-11.621094l-.777344-.238281c-.351563-.125-.707032-.226563-1.070313-.308594-10.019531-1.554687-17.9375-9.320313-19.683593-19.308594h.273437c4.617187-.003906 8.507813-3.445312 9.074219-8.023437.5625-4.582032-2.375-8.867188-6.851563-9.988282-2.671875-.652343-5.21875-1.730468-7.542969-3.191406-8.554687-5.847656-13.683593-15.53125-13.714843-25.894531.238281 0 .492187.09375.730469.09375 4.625.023437 8.539062-3.414063 9.117187-8 .578125-4.589844-2.363281-8.886719-6.847656-10.011719-17.097657-4.363281-21.074219-20.226562-21.550781-32.082031 2.542968 1.164063 5.179687 2.109375 7.878906 2.824219.75.1875 1.515625.28125 2.289062.285156 4.609375.003906 8.503906-3.425781 9.078125-8.003906.578125-4.574219-2.34375-8.859375-6.8125-10-16.886719-4.34375-20.984375-19.8125-21.578125-31.605469 2.21875.9375 4.507813 1.710937 6.839844 2.3125.753906.191406 1.527344.289063 2.304688.292969 4.613281.007812 8.507812-3.421875 9.089843-7.996094.578125-4.578125-2.34375-8.867188-6.8125-10.007812-17.574219-4.496094-21.304687-21.09375-21.613281-33.023438 7.941406 4.976562 16.308594 9.234375 25.003906 12.726562 4.671875 1.917969 10.011719-.3125 11.933594-4.984374 1.917969-4.667969-.3125-10.011719-4.984375-11.929688-36.917969-15.175781-39.953125-29.136719-40.046875-29.15625-.0429688-3.976562 1.84375-7.726562 5.066406-10.058594 2.84375-2.0898435 6.535156-2.65625 9.875-1.507812 14.027344 4.660156 27.769532 10.15625 41.140625 16.457031 5.050781 12.371094 9.128907 25.121094 12.199219 38.125 3.140625 12.539063 5.234375 25.316406 6.253906 38.199219.542969 11.835937.042969 23.699218-1.492187 35.449218l-.613281 6.1875c-4.480469 32.941407 4.96875 66.257813 26.078124 91.941407 14.433594 16.015625 33.421876 27.234375 54.417969 32.144531 4.195313 1.035156 8.410157 1.976562 12.617188 2.925781 2.742187.613281 5.484375 1.28125 8.179687 1.921875v23.394532c-13.40625 7.9375-26.382812 16.574218-38.875 25.886718-11.898437.535156-23.53125-3.636718-32.375-11.613281zm7.242188 118.929687c-12.527344 0-20.964844-2.6875-23.769532-7.578124-4.089843-7.179688 1.828126-20.289063 4.160157-24.285157.253906-.417969.472656-.855469.65625-1.304687 12.554687-31.398438 59.429687-63.910156 82.933593-78.628906v41.734374c.167969 9.097657 3.765626 17.796876 10.078126 24.347657 1.496093 8.386719 4.179687 16.511719 7.972656 24.136719-3.949219 1.582031-7.984375 3.402343-12.097656 5.488281-5.425782 2.808593-10.664063 5.972656-15.679688 9.460937-17.789062 4.175782-35.980469 6.398438-54.253906 6.628906zm46.484375 27.019532c1.441406-4.398438 10.96875-16.019532 31.824219-26.835938 4.460937-2.257812 9.058593-4.234375 13.769531-5.914062 3.148437 3.945312 6.628906 7.617187 10.40625 10.96875-1.484375 1.464844-2.964844 2.917968-4.390625 4.574218-3.660156 2.394532-7.441406 4.601563-11.328125 6.609376-20.84375 10.769531-35.839844 11.921874-40.28125 10.597656zm73.507812 11.617187c-.183593.371094-.335937.75-.457031 1.144531-1.472656 3.015626-3.117188 6.015626-4.921875 8.960938-12.242187 20.113281-24.457031 28.882812-28.960937 30.050781-1.015626-4.570312 1.121093-19.4375 13.238281-39.515625 3.265625-5.472656 6.976562-10.671875 11.089843-15.542968.171876-.152344.308594-.308594.476563-.464844l.207031-.183594.066406-.101562c.082032-.082032.183594-.164063.265626-.253907 2.042968-2.390625 4.242187-4.640625 6.582031-6.738281 2.859375 1.664062 5.90625 3.234375 9.140625 4.707031-1.578125 6.210938-3.832032 12.222657-6.726563 17.9375zm26.292969 52.289063c-3.246094-3.363282-9.140625-17.195313-9.140625-40.640625 0-1.761719.054687-3.535157.109375-5.410157 2.753906-5.710937 4.988281-11.660156 6.671875-17.773437.75.203125 1.519531.308594 2.296875.320313h.128906c.769532-.011719 1.539063-.117188 2.285156-.320313 1.664063 6.136719 3.894532 12.105469 6.664063 17.828125.0625 1.746094.128906 3.519531.128906 5.355469 0 23.445312-5.898437 37.277343-9.144531 40.640625zm0-82.285156c-23.085938-5.804688-41.960938-22.375-50.707031-44.515626 1.65625.261719 3.320312.425782 4.992187.492188 14.4375.269531 28.355469 5.425781 39.480469 14.628906.433594.351563.902344.65625 1.398437.914063.441407.351562.917969.65625 1.417969.914062 2.183594.925781 4.652344.925781 6.839844 0 .5-.257812.972656-.5625 1.414063-.914062.496093-.257813.964843-.5625 1.398437-.914063 11.085937-9.269531 25.03125-14.425781 39.480469-14.601562 1.671875-.066406 3.339844-.230469 4.992187-.492188-8.746093 22.140625-27.621093 38.710938-50.707031 44.515625zm60.636719 70.125c-4.507813-1.167969-16.730469-9.929688-28.984375-30.089844-1.84375-3.003906-3.535156-6.101563-5.0625-9.277344-.121094-.3125-.25-.613281-.394532-.914062-2.878906-5.660157-5.109374-11.625-6.648437-17.785157 3.238281-1.480469 6.300781-3.042969 9.144531-4.707031 2.339844 2.097656 4.539063 4.347656 6.582032 6.738281.136718.15625.292968.292969.4375.4375l.210937.21875.21875.222657c4.179687 4.914062 7.945313 10.167968 11.257813 15.707031 12.113281 20.039062 14.253906 34.914062 13.238281 39.476562zm-1.097657-62.398438c-3.914062-2.023438-7.714843-4.25-11.390624-6.675781-1.445313-1.644531-2.898438-3.054688-4.351563-4.496094 3.777344-3.351563 7.261719-7.023437 10.410156-10.972656 4.691407 1.675781 9.273438 3.644531 13.714844 5.898437 20.894531 10.832032 30.429687 22.453125 31.875 26.851563-4.4375 1.371093-19.429687.21875-40.257813-10.578125zm105.683594-49.5625c.183594.449219.402344.886719.65625 1.304688 1.9375 3.238281 8.355469 16.871093 4.167969 24.257812-2.742187 4.910156-11.207031 7.605469-23.769531 7.605469-18.273438-.226563-36.46875-2.441407-54.261719-6.609375-5.027344-3.5-10.277344-6.667969-15.71875-9.480469-4.085937-2.09375-8.097656-3.90625-12.050781-5.488281 3.792968-7.613282 6.480468-15.734375 7.984375-24.109375 6.3125-6.5625 9.90625-15.277344 10.054687-24.382813v-41.738281c23.480469 14.757813 70.402344 47.269531 82.9375 78.667969zm50.730469-346.03125c-4.667969 1.917969-6.898437 7.261719-4.980469 11.929688 1.917969 4.671874 7.261719 6.902343 11.929688 4.984374 8.71875-3.511718 17.105468-7.796874 25.0625-12.800781-.265625 11.886719-3.949219 28.507813-21.667969 33.0625-4.550781 1.074219-7.554687 5.40625-6.96875 10.042969.585937 4.632812 4.570313 8.082031 9.242187 7.996094.769532-.003906 1.535157-.101563 2.277344-.292969 2.34375-.609375 4.640625-1.394531 6.867188-2.339844-.519532 11.773438-4.570313 27.261719-21.605469 31.632813-4.46875 1.140625-7.386719 5.425781-6.8125 10 .578125 4.578125 4.46875 8.007812 9.082031 8.003906.769532-.003906 1.539063-.097656 2.285156-.285156 2.726563-.71875 5.382813-1.675782 7.945313-2.851563-.4375 11.839844-4.378906 27.710938-21.640625 32.144531-4.488281 1.125-7.429688 5.421876-6.851562 10.011719.578124 4.589844 4.492187 8.023438 9.117187 8 .238281 0 .484375-.074219.722656-.089843-.082031 10.46875-5.316406 20.226562-13.996093 26.082031-2.234376 1.375-4.671876 2.390625-7.222657 3-4.480469 1.121093-7.417969 5.40625-6.851562 9.988281.5625 4.582031 4.457031 8.023438 9.070312 8.023438h.277344c-1.746094 9.988281-9.664063 17.757812-19.6875 19.308593-.375.089844-.75.203125-1.113281.332031-.273438.070313-.539063.144532-.730469.21875-4.773437 1.644532-7.304687 6.847657-5.660156 11.621094.089843.253906.265625.457032.375.703125.625 11.648438-3.289063 23.082031-10.917969 31.90625-8.855469 7.949219-20.480469 12.089844-32.367188 11.53125-12.480468-9.320312-25.449218-17.972656-38.847656-25.921875v-23.394531c2.746094-.640625 5.488282-1.308594 8.230469-1.921875 4.207031-.914062 8.421875-1.890625 12.617187-2.925781 20.992188-4.910157 39.984376-16.128907 54.417969-32.144531 21.109375-25.683594 30.558594-59 26.074219-91.941407l-.613281-6.1875c-1.535157-11.75-2.03125-23.613281-1.488281-35.449219 1.019531-12.882812 3.109374-25.660156 6.253906-38.199218 3.070312-13.003906 7.148437-25.753906 12.195312-38.125 13.375-6.285156 27.113282-11.765625 41.144532-16.410156 3.339843-1.148438 7.027343-.585938 9.875 1.507812 3.058593 2.203125 4.910156 5.710938 5.007812 9.480469 0 .136719-2.476562 14.316406-40.046875 29.769531zm0 0"/>
  </symbol>
  <symbol id="not-found" viewBox="-26 0 512 512">
    <path d="m35.308594 203.035156h388.414062c19.503906 0 35.3125 15.808594 35.3125 35.308594v238.347656c0 19.5-15.808594 35.308594-35.3125 35.308594h-388.414062c-19.5 0-35.308594-15.808594-35.308594-35.308594v-238.347656c0-19.5 15.808594-35.308594 35.308594-35.308594zm0 0" fill="#2c3e50"/><path d="m459.035156 238.34375v35.3125h-459.035156v-35.3125c0-19.5 15.808594-35.308594 35.308594-35.308594h388.414062c19.503906 0 35.3125 15.808594 35.3125 35.308594zm0 0" fill="#285680"/><path d="m44.136719 247.171875c-2.335938-.035156-4.574219-.949219-6.265625-2.558594-.78125-.859375-1.40625-1.84375-1.855469-2.914062-.453125-1.0625-.691406-2.199219-.707031-3.355469-.023438-2.65625 1.164062-5.183594 3.222656-6.867188 2.058594-1.679687 4.769531-2.335937 7.371094-1.78125.554687.09375 1.089844.273438 1.589844.527344.5625.195313 1.097656.460938 1.589843.796875l1.324219 1.058594c.351562.441406.707031.882813 1.058594 1.410156.347656.453125.617187.960938.792968 1.503907.253907.5.433594 1.035156.53125 1.585937.101563.585937.160157 1.175781.175782 1.765625.03125 1.160156-.210938 2.308594-.707032 3.355469-.449218 1.070312-1.074218 2.054687-1.851562 2.914062l-1.324219 1.058594c-.492187.335937-1.027343.601563-1.589843.792969-.5.253906-1.035157.433594-1.589844.53125-.582032.101562-1.171875.160156-1.765625.175781zm0 0" fill="#e64c3c"/><path d="m79.449219 247.171875c-2.335938-.035156-4.574219-.949219-6.269531-2.558594-.777344-.859375-1.40625-1.84375-1.851563-2.914062-.453125-1.0625-.695313-2.199219-.707031-3.355469-.023438-2.65625 1.160156-5.183594 3.21875-6.867188 2.0625-1.679687 4.773437-2.335937 7.375-1.78125.550781.09375 1.085937.273438 1.589844.527344.5625.195313 1.09375.460938 1.585937.796875l1.324219 1.058594c.355468.441406.707031.882813 1.058594 1.410156.351562.453125.621093.960938.796874 1.503907.253907.5.429688 1.035156.527344 1.585937.101563.585937.164063 1.175781.179688 1.765625.027344 1.160156-.210938 2.308594-.707032 3.355469-.449218 1.070312-1.078124 2.054687-1.855468 2.914062l-1.324219 1.058594c-.492187.335937-1.023437.601563-1.585937.792969-.503907.253906-1.039063.433594-1.589844.53125-.585938.101562-1.175782.160156-1.765625.175781zm0 0" fill="#f0c419"/><path d="m114.757812 247.171875c-2.335937-.035156-4.574218-.949219-6.265624-2.558594-.78125-.859375-1.40625-1.84375-1.855469-2.914062-.453125-1.0625-.691407-2.199219-.707031-3.355469-.023438-2.65625 1.164062-5.183594 3.222656-6.867188 2.058594-1.679687 4.769531-2.335937 7.371094-1.78125.554687.09375 1.089843.273438 1.589843.527344.5625.195313 1.097657.460938 1.589844.796875l1.324219 1.058594c.351562.441406.703125.882813 1.058594 1.410156.347656.453125.617187.960938.792968 1.503907.253906.5.433594 1.035156.53125 1.585937.101563.585937.160156 1.175781.175782 1.765625.03125 1.160156-.210938 2.308594-.707032 3.355469-.449218 1.070312-1.074218 2.054687-1.851562 2.914062l-1.324219 1.058594c-.492187.335937-1.027344.601563-1.589844.792969-.5.253906-1.035156.433594-1.589843.53125-.582032.101562-1.171876.160156-1.765626.175781zm0 0" fill="#24ae5f"/><path d="m105.929688 158.898438h247.171874c9.753907 0 17.65625 7.902343 17.65625 17.652343v26.484375h-282.480468v-26.484375c0-9.75 7.902344-17.652343 17.652344-17.652343zm0 0" fill="#95a5a5"/><path d="m264.828125 32.042969c47.375 15.300781 79.46875 59.414062 79.449219 109.199219v17.65625h-229.519532v-17.65625c-.019531-49.785157 32.074219-93.898438 79.449219-109.199219zm0 0" fill="#ecf0f1"/><path d="m203.035156 0h52.964844c4.875 0 8.828125 3.953125 8.828125 8.828125v97.101563c0 9.753906-7.90625 17.65625-17.65625 17.65625h-35.308594c-9.75 0-17.65625-7.902344-17.65625-17.65625v-97.101563c0-4.875 3.953125-8.828125 8.828125-8.828125zm0 0" fill="#95a5a5"/><g fill="#e64c3c"><path d="m158.898438 441.378906h-79.449219c-3.199219 0-6.148438-1.726562-7.707031-4.519531-1.5625-2.792969-1.492188-6.210937.183593-8.933594l70.621094-114.757812c2.675781-3.855469 7.894531-4.945313 11.886719-2.484375 3.992187 2.460937 5.363281 7.617187 3.121094 11.734375l-62.304688 101.304687h63.648438c4.875 0 8.824218 3.953125 8.824218 8.828125s-3.949218 8.828125-8.824218 8.828125zm0 0"/><path d="m141.242188 467.863281c-4.875 0-8.828126-3.953125-8.828126-8.828125v-52.964844c0-4.875 3.953126-8.828124 8.828126-8.828124s8.828124 3.953124 8.828124 8.828124v52.964844c0 4.875-3.953124 8.828125-8.828124 8.828125zm0 0"/><path d="m379.585938 441.378906h-79.449219c-3.195313 0-6.144531-1.726562-7.707031-4.519531-1.558594-2.792969-1.488282-6.210937.1875-8.933594l70.621093-114.757812c2.671875-3.855469 7.890625-4.945313 11.882813-2.484375 3.992187 2.460937 5.363281 7.617187 3.125 11.734375l-62.308594 101.304687h63.648438c4.875 0 8.828124 3.953125 8.828124 8.828125s-3.953124 8.828125-8.828124 8.828125zm0 0"/><path d="m361.929688 467.863281c-4.875 0-8.828126-3.953125-8.828126-8.828125v-52.964844c0-4.875 3.953126-8.828124 8.828126-8.828124s8.828124 3.953124 8.828124 8.828124v52.964844c0 4.875-3.953124 8.828125-8.828124 8.828125zm0 0"/><path d="m247.171875 467.863281h-35.308594c-14.628906 0-26.484375-11.859375-26.484375-26.484375v-105.929687c0-14.628907 11.855469-26.484375 26.484375-26.484375h35.308594c14.625 0 26.484375 11.855468 26.484375 26.484375v105.929687c0 14.625-11.859375 26.484375-26.484375 26.484375zm-35.308594-141.242187c-4.875 0-8.828125 3.953125-8.828125 8.828125v105.929687c0 4.875 3.953125 8.828125 8.828125 8.828125h35.308594c4.875 0 8.828125-3.953125 8.828125-8.828125v-105.929687c0-4.875-3.953125-8.828125-8.828125-8.828125zm0 0"/></g><path d="m158.898438 114.757812h-41.050782c4.847656-20.539062 15.300782-39.332031 30.191406-54.289062zm0 0" fill="#bdc3c7"/><path d="m341.1875 114.757812h-41.050781l10.859375-54.289062c14.890625 14.957031 25.339844 33.75 30.191406 54.289062zm0 0" fill="#bdc3c7"/>
  </symbol>
</svg>
