<svg xmlns="http://www.w3.org/2000/svg" display="none">
  <symbol id="eagle" viewBox="0 0 60 60">
    <g id="014---Eagle"><path id="Shape" d="m12.53 52.21c.9925586-3.082321 2.9796915-5.7482445 5.65-7.58.5110735-.3549804 1.1889265-.3549804 1.7 0 1.16.84 3.89 3.57 4.93 11 1.86-1.18 5.54-3.92 6.11-7.43.0890183-.5729698.5002994-1.0433173 1.0562739-1.2079713.5559745-.1646539 1.1570548.0058788 1.5437261.4379713 1.2461306 1.424065 2.3669608 2.9530781 3.35 4.57.6210094-1.6503373 1.0015677-3.3813724 1.13-5.14.0139943-.441217.2229117-.8535158.5704247-1.1257344.3475131-.2722185.7978435-.3763305 1.2295753-.2842656 1.4282337.3163965 2.8741652.5468105 4.33.69-2.47-2.59-8.43-10.2-8.15-22.76-3.09.2-4.58.62-5 .62-1.38 0-4-.63-4-3 0-.46.3-4.61 10.78-7.69-.1573324-1.3161108.2619635-2.6359815 1.15-3.62.3976303-.45963952.9826908-.71353369 1.59-.69.53 0 1.24.05 2 .13-1.03-3.23-4.5-9.13-15.5-9.13-11.41 0-19.23 7-22.44 10.47l.35-.07c.67196259-.1524143 1.36133897.1725648 1.67137494.7879034s.16098303 1.3627571-.36137494 1.8120966c-.83875186.7615961-1.60227064 1.6021365-2.28 2.51l.78-.19c.55872063-.1470823 1.15210551.042088 1.52260744.4854054.37050194.4433173.45132619 1.0608596.20739256 1.5845946-.28.62-6.73 15-5.65 35.94 2.10273487-2.9667494 4.77457333-5.48562 7.86-7.41.47159676-.2705922 1.05314466-.2628205 1.517342.0202774.4641974.283098.737336.7965701.712658 1.3397226-.0117499 1.7791894.5648112 3.5123886 1.64 4.93zm7.58-41.66c.06-.13 1.62-3.18 4.49-3.81 1.806342-.31463575 3.6559474.23284744 5 1.48 2.18 1.74 3.59 2 4.39 1.83.4462093-.05409083.8580075-.26708989 1.16-.6.3051825-.456275.9211173-.58124727 1.38-.28 1.49 1-1 3.76-4.63 2.63-.3225564 1.579483-1.561743 2.8109706-3.1432055 3.1236771-1.5814626.3127066-3.1960809-.3544911-4.0954909-1.6923516-.8994101-1.3378605-.9078089-3.0848792-.0213036-4.4313255-1.1767095.56388025-2.1459037 1.4840899-2.77 2.63-.2700473.4487927-.8406385.6131719-1.3080622.3768341s-.6732882-.7933069-.4719378-1.2768341z"/><path id="Shape" d="m28 13c.5464011.0005535 1.0692387-.2224693 1.4470094-.6172398.3777708-.3947704.5775789-.9269123.5529906-1.4727602-1.32-.79-1.65-1.27-2.64-1.8-.9204191.31848553-1.4775851 1.2536897-1.31947 2.2147329.158115.9610431.9855306 1.6684498 1.95947 1.6752671z"/><path id="Shape" d="m47 23c.6955947-.1127602 1.329297-.4667838 1.79-1-1.71-1.34-4.32-2-7.79-2-8.2 0-11 .93-11.86 1.37.39.51 1.49.61 1.79.63 11.07-2 14.49 1 16.07 1z"/><path id="Shape" d="m50.88 21.24v.05c.6805526.6852684 1.2087399 1.5065145 1.55 2.41 1.85-4.93 0-7.81-2.18-10-1.78-1.82-6.25-2.58-9.81-2.7-.4969727.5414153-.7405358 1.2684693-.67 2 .1275379.9801987-.4801153 1.906551-1.43 2.18-2.770465.6768205-5.3802564 1.8933639-7.68 3.58 3.4107172-.6133455 6.8762584-.8680661 10.34-.76 4.49 0 7.8 1.09 9.85 3.22zm-5.17-6.53c-.7271772.7301648-1.6847638 1.1859902-2.71 1.29-.5522847 0-1-.4477153-1-1s.4477153-1 1-1c.4948899-.1005032.9479564-.3479472 1.3-.71.3921222-.3893607 1.0256392-.3871222 1.415.005.3893607.3921222.3871222 1.0256392-.005 1.415z"/></g>
  </symbol>
  <symbol id="rxjs" viewBox="0 0 283.5 283.5">
      <style type="text/css">.st0{fill:#e32286}.st1{fill:url(#SVGID_1_)}.st2{fill:url(#SVGID_2_)}.st3{fill:url(#SVGID_3_)}</style>
    <g><path d="M29.6,175.3c-5.2-16.2-6.7-33.3-3.7-50.9c1.3-7.3,3.3-14.3,5.5-21.4c0,0,13.8-45.3,60.5-66 c0,0,16.1-8.5,40.3-9.1c0,0-3.3-3.2-5.4-4.6c-11.4-7.6-28.4-10.1-38.7,0.6c-3.1,3.2-5.7,6.7-8.6,9.9c-3.3,3.6-7.3,6.6-11.9,8.3 c-4,1.5-8,1.2-12.1,1.9c-4.2,0.7-8.5,2.2-11.9,4.9c-3.7,3-5.2,7-5.6,11.6c-0.4,3.6-0.3,7.3-0.5,10.9c-0.5,10.6-3.9,13.6-11.5,19.5 c-3.2,2.4-5.9,5.6-7.9,9c-6,10.6,3.6,21.6,4.1,32.3c0.1,2.2-0.1,4.4-0.9,6.5c-0.8,2.3-2.4,3.8-3.7,5.7c-1.8,2.5-3,5.5-2.5,8.6 c0.5,3.1,2.1,6,3.6,8.7c2.9,4.8,6.5,9.1,10.3,13.2C29.2,174.9,29.4,175.1,29.6,175.3" class="st0"/><linearGradient id="SVGID_1_" x1="53.496" x2="177.932" y1="247.701" y2="115.323" gradientUnits="userSpaceOnUse"><stop offset="0" stop-color="#E01D84"/><stop offset=".401" stop-color="#DF1D85"/><stop offset=".77" stop-color="#932C87"/><stop offset="1" stop-color="#5D2F88"/></linearGradient><path d="M220.4,213.7c23-10,32.8-27.3,32.8-27.3c21.5-29.3,14.2-60.2,14.2-60.2c-13.7,29.8-26.2,38-26.2,38 c33.7-51.3,0.2-82.3,0.2-82.3c13.7,29.2-4.5,64.8-4.5,64.8c-15.3,32.2-37,43.7-37,43.7c24.2,4.5,42-11.8,42-11.8 c-34.7,37.5-72.3,35.7-72.3,35.7c15.8,17.7,39.5,16.2,39.5,16.2c-31,7.3-60.1-3-84-22.9c-4.5-3.7-8.8-7.7-12.8-12 c0,0-3.6-3.8-4.3-4.8l-0.1-0.1c-0.5,18.5,18.8,35.7,18.8,35.7c-24.2-10-35.3-31.7-35.3-31.7s-16.3-27.8-4.5-59.5 c11.8-31.7,47.5-38.5,47.5-38.5c29.5,14.3,54.5,18.8,54.5,18.8c52.7,8.8,49.7-17,49.7-17c0.5-22.2-33-45.8-33-45.8 C145.9,8.4,91.9,37,91.9,37c-46.7,20.7-60.5,66-60.5,66c-2.2,7.1-4.2,14.1-5.5,21.4c-5.1,29.7,2.6,57.8,19.3,82.8 c26,38.8,68.2,52.2,68.2,52.2c62.5,21.2,105.2-10,105.2-10c39.3-27,47.2-58.2,47.2-58.2C234.1,216,220.4,213.7,220.4,213.7z M171.6,67.8c3,0,5.4,2.4,5.4,5.4s-2.4,5.4-5.4,5.4s-5.4-2.4-5.4-5.4S168.6,67.8,171.6,67.8z" class="st1"/><radialGradient id="SVGID_2_" cx="190.456" cy="80.2" r="121.582" gradientTransform="matrix(1 2.387956e-03 -1.996728e-03 0.8362 0.1607 12.6849)" gradientUnits="userSpaceOnUse"><stop offset="0" stop-color="#E01D84"/><stop offset=".139" stop-color="#DE1E85"/><stop offset=".285" stop-color="#D62085"/><stop offset=".434" stop-color="#C92386"/><stop offset=".586" stop-color="#B72786"/><stop offset=".739" stop-color="#9D2B87"/><stop offset=".891" stop-color="#7C2E88"/><stop offset="1" stop-color="#5D2F88"/></radialGradient><path d="M238.5,98.4c0.5-22.2-33-45.8-33-45.8C145.8,8.4,91.8,37,91.8,37c-46.7,20.7-60.5,66-60.5,66 c-2.7,7.7-5.1,19.5-5.1,19.5c-2.9,14.8-1.6,28.5-1.6,28.5c1.2,13.1,4.1,21.9,4.1,21.9c3,9.4,4.4,12.3,4.4,12.3 c-0.1-0.3-0.6-2.5-0.6-2.5s-4.2-20.2-0.3-39.6c0,0,3.4-20.2,17.2-35.8c0,0,22.4-31.9,64.1-19.4c0,0,9,3.2,12.1,4.8 c3.1,1.5,8.5,3.8,8.5,3.8c29.5,14.3,54.5,18.8,54.5,18.8C241.5,124.2,238.5,98.4,238.5,98.4z M171.6,78.7c-3,0-5.4-2.4-5.4-5.4 s2.4-5.4,5.4-5.4s5.4,2.4,5.4,5.4S174.6,78.7,171.6,78.7z" class="st2"/><linearGradient id="SVGID_3_" x1="83.212" x2="137.371" y1="62.336" y2="62.336" gradientUnits="userSpaceOnUse"><stop offset="0" stop-color="#E01D84"/><stop offset=".238" stop-color="#DA1E85"/><stop offset=".658" stop-color="#C72085"/><stop offset=".999" stop-color="#B52284"/></linearGradient><path d="M137.4,58.2l-34.1-10.6c-0.2,0-1.2-0.5-3,0c0,0-20.1,5.1-16.6,16.1c0,0,2.1,6.9,7.8,13.6l37.5-1.8L137.4,58.2z" class="st3"/></g>
  </symbol>
</svg>
